<svg xmlns="http://www.w3.org/2000/svg" version="1.1" width="1600" height="2000" preserveAspectRatio="none" viewBox="0 0 1600 2000">
    <g mask="url('#SvgjsMask1051')" fill="none">
        <rect width="1600" height="2000" x="0" y="0" fill="rgba(30, 30, 30, 1)"></rect>
        <path d="M0,952.162C176.148,977.132,353.05,872.946,482.742,751.161C602.47,638.732,611.714,459.898,682.203,311.552C754.119,160.203,914.468,37.464,901.239,-129.579C887.953,-297.332,742.175,-422.615,615.303,-533.164C500.797,-632.937,360.597,-689.151,213.902,-728.482C70.167,-767.02,-76.979,-788.877,-222.509,-757.794C-375.678,-725.079,-542.183,-675.971,-632.166,-547.775C-720.589,-421.802,-651.25,-248.63,-685.263,-98.526C-723.535,70.375,-906.64,223.956,-843.584,385.252C-781.312,544.544,-544.085,530.33,-402.13,625.727C-255.87,724.017,-174.474,927.43,0,952.162" fill="#1a1a1a"></path>
        <path d="M1600 2691.686C1727.869 2671.857 1835.449 2603.888 1952.0810000000001 2547.848 2086.946 2483.047 2274.716 2472.616 2338.059 2337.06 2401.335 2201.647 2275.078 2053.93 2251.876 1906.274 2229.085 1761.231 2308.584 1579.521 2202.992 1477.504 2095.473 1373.625 1913.274 1459.022 1765.498 1436.365 1643.237 1417.62 1532.47 1333.135 1410.924 1356.065 1284.818 1379.855 1192.887 1479.301 1095.417 1562.776 981.611 1660.242 831.199 1738.935 794.294 1884.157 756.799 2031.704 837.751 2180.773 903.471 2318.094 968.204 2453.352 1037.833 2598.256 1169.975 2669.132 1299.0819999999999 2738.38 1455.224 2714.1369999999997 1600 2691.686" fill="#222222"></path>
    </g>
    <defs>
        <mask id="SvgjsMask1051">
            <rect width="1600" height="2000" fill="#ffffff"></rect>
        </mask>
    </defs>
</svg>
